<svg width="884" height="427" viewBox="0 0 884 427" fill="none" xmlns="http://www.w3.org/2000/svg">
<path fill-rule="evenodd" clip-rule="evenodd" d="M663.404 327.86C660.877 327.55 658.794 327.249 657.549 329.241C657.148 329.882 657.894 331.099 658.849 331.291C661.225 331.773 662.247 330.132 663.404 327.86ZM118.968 213.076C117.92 210.949 115.562 211.648 115.537 209.471C115.53 208.889 111.474 212.103 112.239 212.789C114.142 214.505 116.262 212.369 118.968 213.076ZM247.654 273.884C251.776 272.17 256.578 274.444 261.427 271.173C255.986 271.128 251.701 271.896 247.654 273.884ZM310.975 272.652C314.977 272.306 319.188 272.172 322.974 267.804C317.738 268.304 314.286 270.15 310.975 272.652ZM235.326 280.088C241.084 279.997 246.879 280.441 252.235 276.812C246.226 277.353 240.48 277.261 235.326 280.088ZM392.647 359.982C385.15 360.248 377.43 358.537 370.358 362.544C377.698 360.9 385.322 361.769 392.647 359.982ZM671.062 335.978L670.361 334.922C662.066 339.503 653.773 344.085 645.478 348.668C645.66 348.99 645.839 349.313 646.02 349.636C655.101 346.418 662.951 340.961 671.062 335.978ZM-0.122303 322.282C5.68582 329.791 8.70611 330.279 13.4172 323.436C8.0104 326.59 4.87138 319.183 -0.122303 322.282ZM345.886 362.208C335.664 360.572 326.284 364.38 316.633 366.566C326.697 367.309 336.223 364.486 345.886 362.208ZM-6.69356 222.633C6.2472 214.423 19.4104 206.591 32.9866 199.459C18.4839 204.976 5.25214 212.694 -6.69356 222.633ZM328.966 198.04C316.705 200.463 304.706 203.853 292.871 207.822C305.572 207.004 317.966 205.082 328.966 198.04ZM-23.1773 289.893C-24.0118 292.724 -23.2777 294.437 -22.6622 296.131C-19.3961 305.133 -12.8371 311.676 -6.15602 318.121C-3.05713 321.111 -2.59053 321.143 1.94492 318.743C-9.0191 316.333 -14.0964 310.174 -10.2249 303.899C-12.3571 302.738 -16.6735 301.419 -15.7688 299.845C-13.4091 295.743 -17.1552 296.046 -18.473 294.972C-20.0902 293.658 -22.1054 292.845 -23.1773 289.893ZM724.274 269.406C704.346 289.698 683.71 309.303 665.06 330.822C691.03 316.399 709.91 295.091 724.274 269.406ZM287.266 397.707C293.907 399.615 299.946 399.774 305.898 399.951C354.361 401.393 402.353 395.106 450.499 391.323C446.948 390.589 292.994 396.931 287.266 397.707ZM262.499 188.097C258.592 187.469 254.724 186.544 250.983 189.01C249.844 189.76 248.263 189.022 247.064 188.387C244.88 187.229 242.338 187.93 241.226 189.129C239.348 191.156 237.43 190.507 235.438 190.551C234.095 190.581 232.818 190.041 231.396 190.375C221.226 192.778 210.714 192.165 200.457 193.809C196.255 194.481 191.85 193.094 187.756 195.509C186.443 196.284 185.297 198.625 183.678 197.643C182.086 196.68 185.262 194.837 183.558 193.031C180.36 197.22 176.054 199.961 170.851 199.869C166.515 199.791 161.354 203.109 157.993 197.056C159.989 200.632 159.299 202.244 155.875 203.055C151.873 204.005 147.743 204.194 143.783 205.05C140.628 205.732 137.513 207.661 134.304 207.119C129.837 206.363 126.251 211.556 121.547 208.575C120.886 208.157 119.333 209.223 120.17 210.987C121.192 213.143 125.169 214.084 127.256 212.327C130.042 209.98 134.066 212.024 136.739 209.479C138.981 213.477 140.953 210.186 143.038 209.275C143.515 209.065 144.03 208.594 144.647 209.219C146.724 211.325 150.012 210.581 152.524 213.392C152.512 210.897 150.199 208.766 152.164 208.122C154.701 207.291 153.899 211.159 156.11 212.082C156.606 209.338 158.391 208.489 161.043 208.912C169.248 210.219 176.686 206.744 184.292 204.762C188.726 203.609 193.298 202.978 197.671 202.572C205.431 201.853 212.992 199.936 220.542 198.598C229.474 197.016 238.48 195.004 247.34 192.773C252.401 191.497 258.089 191.753 262.413 188.004C269.16 187.979 271.917 186.29 271.881 182.085C268.954 184.483 264.475 184.299 262.499 188.097ZM675.868 353.129C670.429 358.114 663.823 361.041 657.015 363.468C651.791 365.332 646.247 366.334 641.976 370.346C641.158 371.115 639.833 372.283 638.417 371.012C637.475 370.169 636.482 370.475 636.298 371.39C635.686 374.415 633.945 374.156 631.726 373.398C630.13 372.855 629.172 373.109 630.6 374.937C629.393 375.525 628.231 376.233 626.975 376.681C606.547 383.979 585.992 390.891 564.811 395.714C553.64 398.256 543.437 403.474 532.588 406.961C512.583 413.391 492.137 416.105 471.267 417.398C458.648 418.179 445.956 417.826 433.47 418.906C407.878 421.121 382.214 422 356.647 424.211C340.495 425.608 324.339 426.258 308.163 426.857C293.391 427.404 278.907 425.457 264.376 422.761C241.006 418.421 217.485 414.891 193.959 411.426C152.95 405.384 112.927 395.371 74.2699 380.253C50.1545 370.821 27.0424 359.38 5.69799 344.623C-9.2496 334.288 -22.774 322.388 -32.7162 306.955C-47.5083 283.995 -46.2624 260.361 -29.4986 238.326C-16.6732 221.465 0.547112 210.224 18.8645 200.492C52.1161 182.827 88.0285 175.534 125.316 173.701C150.812 172.447 176.324 172.562 201.836 172.46C212.049 172.42 221.731 169.34 231.618 167.242C249.724 163.401 267.669 158.947 285.573 154.315C292.895 152.422 300.136 150.142 306.772 146.38C310.339 144.356 314.799 144.406 317.851 141.001C319.338 139.342 321.574 140.344 323.574 141.443C325.753 142.639 328.503 143.483 328.61 139.329C328.72 134.932 330.911 131.966 335.65 131.096C337.798 130.701 339.502 130.25 340.442 128.166C340.56 127.9 340.85 127.482 341.02 127.5C345.634 127.994 347.175 123.751 350.197 121.808C357.301 117.239 364.161 112.307 371.332 107.857C376.128 104.878 380.481 101.249 385.119 98.0734C387.25 96.6134 389.848 95.11 391.708 93.1784C393.859 90.9441 396.294 89.0928 398.498 86.9655C403.632 82.0053 410.158 78.9616 415.447 74.1268C421.847 68.2769 427.007 61.3884 432.902 55.1338C448.622 38.4553 463.541 20.959 481.45 6.50476C497.177 -6.18848 515.528 -12.204 535.557 -13.669C545.77 -14.4165 555.322 -18.1074 565.127 -20.7247C575.044 -23.3704 584.212 -27.6867 593.168 -32.3794C598.661 -35.2592 602.309 -40.6526 606.394 -45.3619C618.213 -58.98 628.868 -73.9744 643.794 -84.3163C656.39 -93.0427 668.712 -102.319 682.699 -109.076C697.232 -116.093 712.13 -121.767 728.077 -124.057C753.447 -127.697 778.33 -126.666 802.733 -117.148C813.967 -112.767 824.282 -107.198 833.756 -100.139C846.016 -91.0041 855.91 -79.4782 864.33 -66.6796C878.246 -45.5191 882.803 -21.8418 883.779 2.95099C884.259 15.0606 884.117 27.1116 881.699 38.9687C880.727 43.7349 879.1 48.6835 878.433 53.2758C876.633 65.6596 871.299 76.5133 866.143 87.4288C860.703 98.9547 854.259 110.009 847.932 121.112C843.263 129.305 836.955 136.401 833.01 145.045C831.595 148.142 828.68 150.561 826.411 153.256C823.76 156.404 822.905 160.498 820.482 163.851C812.072 175.492 804.145 187.481 795.776 199.154C781.108 219.612 769.231 241.771 756.345 263.318C750.75 272.677 745.204 282.067 739.613 291.429C736.448 296.729 732.596 301.603 728.975 306.55C726.86 309.442 723.59 312.046 721.075 314.817C717.496 318.762 712.252 321.239 710.324 326.766C709.307 329.681 707.133 331.746 704.01 332.843C700.246 334.166 698.468 338.395 694.587 339.666C688.347 344.153 682.109 348.64 675.868 353.129Z" fill="url(#paint0_linear_4700_23181)"/>
<defs>
<linearGradient id="paint0_linear_4700_23181" x1="-43" y1="-93.9744" x2="883.938" y2="-83.7629" gradientUnits="userSpaceOnUse">
<stop stop-color="#F6F9DB"/>
<stop offset="0.0001" stop-color="#F6F9DB"/>
<stop offset="1" stop-color="#D9F9E8"/>
</linearGradient>
</defs>
</svg>
