<svg width="110" height="21" viewBox="0 0 110 21" fill="none" xmlns="http://www.w3.org/2000/svg">
<path d="M24.1185 5.39178C24.1185 3.8141 24.4999 2.60764 25.2626 1.7724C26.0444 0.9186 27.2075 0.491699 28.752 0.491699C30.2965 0.491699 31.4501 0.9186 32.2128 1.7724C32.9946 2.60764 33.3855 3.8141 33.3855 5.39178V6.00429H30.4109V5.19689C30.4109 4.49158 30.2679 3.99971 29.9819 3.7213C29.7149 3.42432 29.3336 3.27584 28.8378 3.27584C28.3421 3.27584 27.9512 3.42432 27.6651 3.7213C27.3982 3.99971 27.2647 4.49158 27.2647 5.19689C27.2647 5.86508 27.4173 6.45903 27.7223 6.97874C28.0274 7.47988 28.4088 7.96247 28.8664 8.42649C29.324 8.87195 29.8103 9.3267 30.3251 9.79072C30.859 10.2362 31.3548 10.728 31.8124 11.2663C32.27 11.8046 32.6514 12.4171 32.9565 13.1038C33.2616 13.7906 33.4141 14.598 33.4141 15.526C33.4141 17.1037 33.0137 18.3195 32.2128 19.1733C31.4311 20.0085 30.2679 20.4261 28.7234 20.4261C27.1789 20.4261 26.0062 20.0085 25.2054 19.1733C24.4236 18.3195 24.0327 17.1037 24.0327 15.526V14.3289H27.0073V15.7209C27.0073 16.4262 27.1503 16.9181 27.4363 17.1965C27.7414 17.4749 28.1418 17.6141 28.6376 17.6141C29.1334 17.6141 29.5243 17.4749 29.8103 17.1965C30.1154 16.9181 30.2679 16.4262 30.2679 15.7209C30.2679 15.0527 30.1154 14.4681 29.8103 13.9669C29.5052 13.4472 29.1238 12.9646 28.6662 12.5192C28.2086 12.0552 27.7128 11.6004 27.1789 11.1549C26.6641 10.6909 26.1779 10.1898 25.7202 9.65151C25.2626 9.11325 24.8812 8.50073 24.5761 7.81398C24.2711 7.12723 24.1185 6.31983 24.1185 5.39178Z" fill="#333333"/>
<path d="M48.2591 20.2034H45.0843L44.5409 16.6675H40.6796L40.1362 20.2034H37.2474L40.4508 0.714429H45.0557L48.2591 20.2034ZM41.0801 14.0226H44.1119L42.596 4.16676L41.0801 14.0226Z" fill="#333333"/>
<path d="M61.6805 12.9368V15.526C61.6805 17.1037 61.2801 18.3195 60.4792 19.1733C59.6975 20.0085 58.5343 20.4261 56.9898 20.4261C55.4453 20.4261 54.2727 20.0085 53.4718 19.1733C52.69 18.3195 52.2991 17.1037 52.2991 15.526V5.39178C52.2991 3.8141 52.69 2.60764 53.4718 1.7724C54.2727 0.9186 55.4453 0.491699 56.9898 0.491699C58.5343 0.491699 59.6975 0.9186 60.4792 1.7724C61.2801 2.60764 61.6805 3.8141 61.6805 5.39178V7.285H58.7059V5.19689C58.7059 4.49158 58.5534 3.99971 58.2483 3.7213C57.9623 3.42432 57.5714 3.27584 57.0756 3.27584C56.5799 3.27584 56.1794 3.42432 55.8744 3.7213C55.5883 3.99971 55.4453 4.49158 55.4453 5.19689V15.7209C55.4453 16.4262 55.5883 16.9181 55.8744 17.1965C56.1794 17.4749 56.5799 17.6141 57.0756 17.6141C57.5714 17.6141 57.9623 17.4749 58.2483 17.1965C58.5534 16.9181 58.7059 16.4262 58.7059 15.7209V12.9368H61.6805Z" fill="#333333"/>
<path d="M73.0281 20.2034C72.9899 20.0735 72.9518 19.9528 72.9137 19.8415C72.8755 19.7301 72.8374 19.5909 72.7993 19.4238C72.7802 19.2568 72.7611 19.0433 72.7421 18.7835C72.7421 18.5236 72.7421 18.1988 72.7421 17.809V14.7465C72.7421 13.837 72.58 13.1966 72.2558 12.8254C71.9317 12.4542 71.4073 12.2686 70.6827 12.2686H69.5959V20.2034H66.4496V0.714429H71.1976C72.8374 0.714429 74.0196 1.08565 74.7442 1.82808C75.4878 2.57052 75.8596 3.69346 75.8596 5.19689V6.72817C75.8596 8.73275 75.1732 10.0506 73.8003 10.6816C74.6012 10.9972 75.1446 11.5169 75.4306 12.2408C75.7357 12.9461 75.8882 13.8092 75.8882 14.83V17.8369C75.8882 18.3195 75.9073 18.7464 75.9455 19.1176C75.9836 19.4702 76.0789 19.8322 76.2315 20.2034H73.0281ZM69.5959 3.49857V9.48446H70.8257C71.4168 9.48446 71.8745 9.33598 72.1986 9.039C72.5418 8.74203 72.7134 8.20376 72.7134 7.4242V5.50315C72.7134 4.79783 72.58 4.28741 72.313 3.97187C72.0651 3.65634 71.6647 3.49857 71.1117 3.49857H69.5959Z" fill="#333333"/>
<path d="M80.8176 0.714429H83.9638V20.2034H80.8176V0.714429Z" fill="#333333"/>
<path d="M89.1244 0.714429H92.2706V17.4193H97.4475V20.2034H89.1244V0.714429Z" fill="#333333"/>
<path d="M101.677 0.714429H104.823V17.4193H110V20.2034H101.677V0.714429Z" fill="#333333"/>
<path fill-rule="evenodd" clip-rule="evenodd" d="M10.1346 0.398187C10.4218 0.520472 10.6082 0.802472 10.6082 1.11465V8.38052H14.6886C14.9655 8.38052 15.2215 8.52758 15.3611 8.76674C15.5007 9.00591 15.5027 9.3012 15.3665 9.54228L14.8556 10.4464C12.9181 13.8754 10.4472 16.9742 7.5356 19.6264L6.70966 20.3788C6.4817 20.5865 6.15268 20.6401 5.87061 20.5155C5.58855 20.3908 5.40659 20.1115 5.40659 19.8032V12.5989H1.19129C0.761228 12.5989 0.412598 12.2503 0.412598 11.8202C0.412598 11.6809 0.44917 11.5502 0.513237 11.437C2.3393 8.06121 4.67722 4.98854 7.44386 2.3283L9.28982 0.553341C9.51485 0.336971 9.84734 0.275902 10.1346 0.398187ZM2.525 11.0415H6.18528C6.61533 11.0415 6.96396 11.3901 6.96396 11.8202V18.0325C9.47508 15.6595 11.6275 12.9327 13.3527 9.9379H9.82954C9.39948 9.9379 9.05085 9.58927 9.05085 9.15921V2.94365L8.52329 3.45091C6.18642 5.69791 4.1688 8.25202 2.525 11.0415Z" fill="#333333"/>
</svg>


