<svg width="28" height="21" viewBox="0 0 28 21" fill="none" xmlns="http://www.w3.org/2000/svg">
<path d="M2.8745 18.9814C1.3295 17.3404 0.5 15.4999 0.5 12.5164C0.5 7.26637 4.1855 2.56087 9.545 0.234375L10.8845 2.30138C5.882 5.00738 4.904 8.51887 4.514 10.7329C5.3195 10.3159 6.374 10.1704 7.4075 10.2664C10.1135 10.5169 12.2465 12.7384 12.2465 15.4999C12.2465 16.8923 11.6934 18.2276 10.7088 19.2122C9.72425 20.1968 8.38889 20.7499 6.9965 20.7499C5.387 20.7499 3.848 20.0149 2.8745 18.9814ZM17.8745 18.9814C16.3295 17.3404 15.5 15.4999 15.5 12.5164C15.5 7.26637 19.1855 2.56087 24.545 0.234375L25.8845 2.30138C20.882 5.00738 19.904 8.51887 19.514 10.7329C20.3195 10.3159 21.374 10.1704 22.4075 10.2664C25.1135 10.5169 27.2465 12.7384 27.2465 15.4999C27.2465 16.8923 26.6934 18.2276 25.7088 19.2122C24.7242 20.1968 23.3889 20.7499 21.9965 20.7499C20.387 20.7499 18.848 20.0149 17.8745 18.9814Z" fill="#333333"/>
</svg>
