<svg width="14" height="14" viewBox="0 0 14 14" fill="none" xmlns="http://www.w3.org/2000/svg">
<path d="M6.3335 0.333984C9.6455 0.333984 12.3335 3.02198 12.3335 6.33398C12.3335 9.64598 9.6455 12.334 6.3335 12.334C3.0215 12.334 0.333496 9.64598 0.333496 6.33398C0.333496 3.02198 3.0215 0.333984 6.3335 0.333984ZM6.3335 11.0007C8.9115 11.0007 11.0002 8.91198 11.0002 6.33398C11.0002 3.75532 8.9115 1.66732 6.3335 1.66732C3.75483 1.66732 1.66683 3.75532 1.66683 6.33398C1.66683 8.91198 3.75483 11.0007 6.3335 11.0007ZM11.9902 11.048L13.8762 12.9333L12.9328 13.8767L11.0475 11.9907L11.9902 11.048V11.048Z" fill="#808080"/>
</svg>
