<svg width="14" height="14" viewBox="0 0 14 14" fill="none" xmlns="http://www.w3.org/2000/svg">
<path d="M7.57666 0.998092C7.31974 0.555325 6.68034 0.555323 6.42342 0.998092L4.61405 4.1163C4.48713 4.33502 4.26777 4.48428 4.01772 4.52205L0.626849 5.0342C0.0573272 5.12022 -0.142446 5.83929 0.301091 6.20676L2.82715 8.29957C3.06098 8.4933 3.17093 8.79887 3.11413 9.09716L2.45335 12.5673C2.34889 13.1158 2.92475 13.542 3.41885 13.2819L6.61179 11.6006C6.85481 11.4727 7.14527 11.4727 7.38829 11.6006L10.5812 13.2819C11.0753 13.542 11.6512 13.1158 11.5467 12.5673L10.886 9.09716C10.8292 8.79887 10.9391 8.4933 11.1729 8.29957L13.699 6.20676C14.1425 5.83929 13.9428 5.12022 13.3732 5.0342L9.98236 4.52205C9.73231 4.48428 9.51295 4.33502 9.38603 4.1163L7.57666 0.998092Z" fill="#FFA51E"/>
</svg>
