<svg width="53" height="22" viewBox="0 0 53 22" fill="none" xmlns="http://www.w3.org/2000/svg">
<path fill-rule="evenodd" clip-rule="evenodd" d="M27.3459 0.0224325C26.9057 0.115215 26.6077 0.277227 26.2866 0.598487C26.0128 0.872356 25.8827 1.08207 25.7618 1.44466C25.7046 1.61597 25.6961 1.6956 25.697 2.05044C25.698 2.41746 25.7058 2.4819 25.7738 2.6844C25.883 3.00966 26.0309 3.2449 26.2881 3.50206C26.5397 3.75364 26.8099 3.91354 27.1747 4.02667C27.4763 4.12016 27.9717 4.12018 28.2733 4.0267C29.1462 3.75612 29.7094 3.04395 29.758 2.14906C29.8092 1.20855 29.2354 0.376856 28.3343 0.0853212C28.0934 0.00738685 27.5741 -0.0256637 27.3459 0.0224325ZM12.9673 2.07468C11.7553 2.27655 11.3307 2.35714 11.3135 2.38855C11.3007 2.4118 11.1872 3.07111 11.0612 3.8537C10.9352 4.63628 10.8267 5.28213 10.8202 5.28892C10.8136 5.29568 10.5535 5.3427 10.242 5.39336C9.9306 5.44402 9.67056 5.49071 9.66413 5.49714C9.64977 5.51148 9.23207 8.06649 9.23207 8.13994C9.23207 8.19035 9.26835 8.19277 10.0208 8.19277H10.8095L10.8099 11.0315C10.8101 12.6258 10.8227 14.0519 10.8385 14.2848C10.8909 15.055 11.0025 15.5189 11.2608 16.0397C11.7041 16.9339 12.4338 17.4233 13.6403 17.6358C13.9623 17.6925 14.1015 17.7003 14.7951 17.7012C15.6524 17.7022 15.8985 17.6772 16.5274 17.5251L16.8514 17.4468L16.8587 15.9158L16.8659 14.3848L16.7882 14.4018C16.1584 14.5395 15.5902 14.575 15.3122 14.4942C15.1043 14.4337 14.9248 14.2912 14.8246 14.1071C14.6534 13.7923 14.6591 13.8961 14.6476 10.9188L14.6372 8.19277H15.6527C16.2388 8.19277 16.6683 8.18201 16.6683 8.1673C16.6683 8.1533 16.7697 7.51892 16.8936 6.75755C17.0176 5.99619 17.119 5.35468 17.119 5.33197C17.119 5.2963 16.9496 5.29066 15.8796 5.29066H14.6402V3.54376C14.6402 2.58297 14.6307 1.79827 14.6191 1.79996C14.6075 1.80168 13.8642 1.92529 12.9673 2.07468ZM3.76759 5.11023C3.37882 5.15694 2.82879 5.28985 2.49878 5.41681C1.59027 5.76638 0.879127 6.392 0.51864 7.15883C0.272456 7.68254 0.189559 8.05668 0.170434 8.73042C0.148238 9.51261 0.241753 9.9969 0.519315 10.5371C0.901041 11.2799 1.63731 11.8799 2.75356 12.3578C2.93172 12.4341 3.30564 12.5816 3.5845 12.6857C4.13576 12.8914 4.70399 13.1519 4.90848 13.2927C5.22424 13.51 5.3724 13.7487 5.37285 14.0408C5.37341 14.387 5.1641 14.6374 4.76753 14.7648C4.59447 14.8204 4.51352 14.828 4.1056 14.8263C3.59146 14.8242 3.35381 14.79 2.71131 14.626C2.01842 14.4491 1.23742 14.1515 0.687926 13.855C0.530245 13.77 0.468755 13.7487 0.459713 13.7762C0.452897 13.7969 0.351128 14.4225 0.233529 15.1663C0.115929 15.9101 0.0126676 16.5538 0.00407652 16.5967C-0.0110494 16.6722 -0.000683599 16.6798 0.335861 16.8409C1.13156 17.2219 2.13044 17.5068 3.16199 17.6471C3.67709 17.7172 4.70894 17.7329 5.18173 17.6778C7.07473 17.4575 8.28494 16.6345 8.77652 15.2334C8.95772 14.7169 8.99273 14.4747 8.99192 13.7434C8.99124 13.144 8.98488 13.0559 8.92482 12.8136C8.79661 12.2963 8.62321 11.9301 8.33469 11.5672C7.8215 10.9217 7.06811 10.4596 5.66765 9.93131C4.75134 9.58562 4.42572 9.43375 4.13469 9.2164C3.66049 8.86229 3.65937 8.30643 4.13236 8.06669C4.73539 7.76104 6.3266 8.03138 7.71086 8.67475C7.85083 8.73981 7.9709 8.78748 7.97769 8.78069C7.99104 8.76736 8.44339 5.9983 8.44339 5.92997C8.44339 5.84626 7.59918 5.52472 6.92234 5.35059C6.51741 5.24643 5.83035 5.13175 5.38722 5.09436C4.92707 5.05554 4.16021 5.06306 3.76759 5.11023ZM37.2587 5.10631C36.4523 5.23938 35.7158 5.63348 35.0264 6.30071C34.9063 6.41691 34.8081 6.50222 34.8081 6.49031C34.8081 6.46433 34.645 5.47905 34.6223 5.36815L34.6065 5.29066H32.9046H31.2027V13.6453V22L31.2661 21.9853C31.3009 21.9772 32.1407 21.8375 33.1322 21.6749C34.1237 21.5123 34.9697 21.3718 35.0123 21.3628L35.0898 21.3464V19.3934V17.4404L35.2518 17.4907C35.7671 17.6508 36.4077 17.729 37.0327 17.708C38.3249 17.6646 39.3669 17.2281 40.2022 16.3804C40.5665 16.0106 40.8149 15.6591 41.0701 15.1522C41.496 14.3063 41.753 13.2924 41.8517 12.0689C41.8966 11.5134 41.8718 9.99659 41.8096 9.48886C41.5025 6.98124 40.4615 5.52278 38.7093 5.14516C38.3695 5.07191 37.5932 5.05111 37.2587 5.10631ZM47.4976 5.08374C46.1988 5.23823 45.294 5.62666 44.5149 6.36416C43.5121 7.31355 42.9482 8.56681 42.7349 10.32C42.669 10.8622 42.6686 12.024 42.7341 12.6023C42.8722 13.822 43.2004 14.821 43.7198 15.603C43.9775 15.9909 44.5189 16.5369 44.8909 16.7839C45.562 17.2296 46.3399 17.5094 47.3004 17.6508C47.7908 17.7229 49.175 17.7229 49.7087 17.6507C50.5294 17.5396 51.2973 17.3395 51.8917 17.0818C52.1604 16.9653 52.4817 16.7976 52.59 16.7173C52.638 16.6817 52.6302 16.6151 52.4319 15.3658C52.3172 14.643 52.2172 14.0455 52.2097 14.038C52.2022 14.0305 52.0515 14.0938 51.8748 14.1787C51.2924 14.4585 50.5713 14.6636 49.8214 14.7628C49.4214 14.8157 48.3926 14.8081 48.1432 14.7503C47.6879 14.645 47.3036 14.4273 47.0703 14.1427C46.8207 13.8382 46.6136 13.2972 46.5644 12.8207L46.5462 12.6446H49.7454C52.2344 12.6446 52.9494 12.6369 52.9659 12.6102C53.0031 12.55 53.0135 10.686 52.9788 10.306C52.8156 8.5197 52.306 7.23604 51.4008 6.33142C50.682 5.61308 49.8231 5.22166 48.6887 5.09566C48.4366 5.06762 47.6953 5.06024 47.4976 5.08374ZM23.6538 5.16317C22.8412 5.299 22.2325 5.74556 21.8973 6.45168L21.7807 6.69745L21.6679 6.00109L21.5551 5.30475H19.8511H18.1471V11.3907V17.4767H20.0906H22.0342L22.0413 13.5135L22.0485 9.55031L22.2513 9.36244C22.4946 9.13714 22.8417 8.95783 23.2172 8.86344C23.4454 8.80608 23.5391 8.79965 24.154 8.79915L24.8372 8.79855L24.83 7.00939L24.8228 5.22022L24.6538 5.18537C24.3789 5.12871 23.9209 5.11851 23.6538 5.16317ZM25.7664 11.3907V17.4908H27.724H29.6817V11.3907V5.29066H27.724H25.7664V11.3907ZM48.4465 7.80691C48.9571 8.0568 49.2639 8.78478 49.3364 9.91854L49.3575 10.2496H47.9317H46.5059L46.5177 10.1017C46.6128 8.90869 46.8955 8.16891 47.3709 7.8687C47.5678 7.74436 47.7032 7.71285 48.0049 7.72108C48.2466 7.7277 48.3098 7.73996 48.4465 7.80691ZM36.7549 8.05229C37.1382 8.12448 37.4118 8.35893 37.6257 8.79855C37.8479 9.25517 37.9429 9.72348 37.9961 10.6252C38.0674 11.8328 37.9146 12.9986 37.5955 13.6817C37.2341 14.4554 36.7507 14.8166 36.0813 14.8131C35.8418 14.8119 35.522 14.7537 35.287 14.6686L35.1039 14.6024L35.0967 11.7016L35.0895 8.80095L35.2094 8.67743C35.4764 8.40218 35.9307 8.14214 36.2749 8.06748C36.5005 8.01853 36.5648 8.01651 36.7549 8.05229Z" fill="#AAAAAA"/>
</svg>
